<?xml version="1.0" encoding="UTF-8" standalone="no"?><!DOCTYPE svg PUBLIC "-//W3C//DTD SVG 1.1//EN" "http://www.w3.org/Graphics/SVG/1.1/DTD/svg11.dtd"><svg xmlns="http://www.w3.org/2000/svg" xmlns:xlink="http://www.w3.org/1999/xlink" version="1.1" width="500" height="500" viewBox="0 0 500 500">
<desc>Created with SVGMaker Editor 2.2.3</desc>
<defs>
</defs>
<polygon transform="translate(0,0)" style="fill: rgb(41,56,69)" points="154.219,205.188 166.219,335.031 110.922,405.563 96.406,296.563"/>
<polygon transform="translate(0,0)" style="fill: rgb(0,0,0)" points="357.781,205.188 345.766,335.031 401.063,405.563 415.594,296.563 NaN,NaN NaN,NaN"/>
<path transform="translate(0,0)" style="stroke: rgb(41,56,69); fill: rgb(41,56,69)" stroke-linecap="round" d="M 323.813 62.219 C 305.125 23.328 275.656 0 256 0 C 236.344 0 206.875 23.344 188.187 62.219 L 323.813 62.219 Z"/>
<path transform="translate(0,0)" style="stroke: rgb(41,56,69); fill: rgb(41,56,69)" stroke-linecap="round" d="M 331.328 80.469 L 180.672 80.469 C 174.031 99.625 170.078 121.563 170.625 145.657 C 172.234 214.72 188.672 336.641 188.672 336.641 L 311.313 336.625 L 323.313 336.641 C 323.313 336.641 339.766 214.703 341.344 145.657 C 341.922 121.563 337.969 99.609 331.328 80.469 Z M 256 231.031 C 232.422 231.031 213.312 211.937 213.312 188.359 C 213.312 164.781 232.437 145.687 256 145.687 C 279.563 145.687 298.672 164.781 298.656 188.359 C 298.672 211.938 279.563 231.031 256 231.031 Z"/>
<path transform="translate(0,0)" style="stroke: rgb(41,56,69); fill: rgb(41,56,69)" stroke-linecap="round" d="M 429.516 512 C 423.407 494.406 406.657 481.781 386.985 481.781 C 380.688 481.781 374.688 483.062 369.219 485.406 C 367.344 464.828 350.031 448.718 328.969 448.718 C 325.922 448.718 322.969 449.046 320.125 449.687 C 320.156 449.124 320.156 448.562 320.156 447.999 C 320.156 432.468 307.562 419.874 292.031 419.874 C 288 419.874 284.156 420.718 280.687 422.249 C 270.953 405.03 268.124 360.093 268.124 360.093 L 242.624 360.093 C 242.624 360.093 239.358 409.437 227.811 425.781 C 225.123 424.687 222.155 424.093 219.061 424.093 C 206.045 424.093 195.498 434.64 195.498 447.656 C 195.498 448.64 195.561 449.609 195.686 450.562 C 191.967 449.359 192.405 448.718 188.28 448.718 C 171.796 448.718 157.749 459.124 152.342 473.718 C 146.295 471.202 139.67 469.812 132.717 469.812 C 107.561 469.812 86.654 488.031 82.483 512 L 429.516 512 Z"/>
<polygon transform="translate(0,0)" style="fill: rgb(41,56,69)" vector-effect="non-scaling-stroke" points="358.5,205.5 346.5,335.343 401.797,405.875 416.313,296.875"/>
</svg>